<?xml version="1.0" encoding="utf-8"?>
<!-- Generator: Adobe Illustrator 21.0.0, SVG Export Plug-In . SVG Version: 6.00 Build 0)  -->
<svg version="1.1" id="Layer_1" xmlns="http://www.w3.org/2000/svg" xmlns:xlink="http://www.w3.org/1999/xlink" x="0px" y="0px"
	 viewBox="0 0 841.9 595.3" style="enable-background:new 0 0 841.9 595.3;" xml:space="preserve">
<g>
	<path d="M18,364c-0.2,0.8-0.5,1.7-0.5,2.5c0,6.6,0,13.2,0,19.8c0,2-0.9,3.4-2.9,3.4c-2.2,0.1-3.1-1.4-3.2-3.5c0-0.7,0-1.3,0-2
		c0-5.8,0-11.5,0-17.3c0-0.9-0.1-1.8-0.1-3c-2.7,0-5.2,0-8,0c2.9-10.2,5.8-20,8.7-29.9c-0.3-0.1-0.6-0.2-0.9-0.3
		c-0.3,0.8-0.7,1.6-1,2.5c-1.4,4.6-2.8,9.2-4.2,13.8c-0.6,1.8-1.4,3.6-3.7,3c-2.4-0.7-2.3-2.6-1.7-4.6c1.9-6,3.7-12.1,5.6-18
		c1.2-3.6,4.3-5.9,8.1-6c2.6-0.1,5.3,0,7.9,0c4.1,0,7.6,2.3,8.9,6.2c2,6,3.8,12,5.7,18c0.6,2,0.2,3.7-1.8,4.4
		c-2.1,0.7-3-0.9-3.5-2.7c-1.4-4.7-2.8-9.4-4.3-14c-0.3-0.8-0.6-1.7-0.9-2.5c-0.3,0.1-0.7,0.2-1,0.3c2.8,9.9,5.6,19.7,8.4,29.9
		c-2.8,0-5.2,0-8,0c0,6.3,0,12.4,0,18.5c0,1.2,0,2.5,0,3.7c-0.1,2.1-1.1,3.5-3.3,3.5c-2.2,0-3.1-1.5-3.1-3.6c0-6.3,0-12.6,0-19
		c0-1,0-2,0-3C18.8,364.1,18.4,364.1,18,364z"/>
	<path d="M71.2,356.2c-0.1,1-0.1,1.9-0.1,2.9c0,8.4,0,16.8,0,25.2c0,1.1,0.1,2.5-0.6,3.2c-0.9,1-2.4,2-3.6,1.9c-1.1,0-2.4-1.3-3-2.4
		c-0.6-1-0.4-2.4-0.4-3.6c0-15.2,0-30.4,0-45.6c0-1-0.1-1.9-0.1-2.9c-0.3,0-0.5,0-0.8,0c-0.1,0.7-0.2,1.5-0.2,2.2c0,5,0,10,0,15
		c0,2.1-0.4,3.9-3,3.9c-2.4,0-2.8-1.8-2.8-3.8c0-6.3,0-12.6,0-19c0.1-5.3,3.7-8.8,8.9-8.9c4.1-0.1,8.3-0.1,12.5,0
		c5.1,0.1,8.9,3.8,9,8.9c0.1,6.3,0,12.6,0,19c0,2.1-0.6,3.9-3.1,3.8c-2.5-0.1-2.6-2-2.6-3.9c0-4.9,0-9.8,0-14.7
		c0-0.9-0.1-1.7-0.2-2.6c-0.3,0-0.6,0-0.9,0c-0.1,1-0.2,2.1-0.2,3.1c0,15,0,30,0,45c0,0.8,0,1.7,0,2.5c-0.2,2.3-1.2,4-3.8,4
		c-2.3,0.1-3.9-1.5-3.9-4.2c0-8.8,0-17.5,0-26.3c0-0.9-0.1-1.9-0.2-2.8C71.7,356.2,71.5,356.2,71.2,356.2z"/>
	<path d="M42,310.5c2.4,0,4.5,0,6.9,0c0,26.2,0,52.4,0,78.7c-2.3,0-4.5,0-6.9,0C42,363,42,336.9,42,310.5z"/>
	<path d="M71.4,322.7c-3.7,0-6.5-2.9-6.4-6.5c0.1-3.4,3.2-6.5,6.6-6.5c3.5,0,6.6,3.1,6.6,6.5C78.2,320,75.2,322.8,71.4,322.7z"/>
	<path d="M18.5,322.7c-3.8,0.1-6.5-2.5-6.6-6.2c-0.1-3.6,2.7-6.6,6.3-6.7c3.4-0.1,6.9,3.2,6.9,6.5C25.2,319.7,22.1,322.7,18.5,322.7
		z"/>
</g>
<path d="M109.5,390c-3.4,0-6.7,0-10,0c0-0.5-0.1-1-0.1-1.5c0-11.9,0.1-23.8,0-35.7c0-5.4,1.6-10,5.1-14c3.5-4,6.7-8.2,10-12.3
	c0.6-0.8,1.3-1.5,2.1-2.1c1.7-1.3,3.6-1.7,5.5-0.7c2,1,3,2.7,3,4.9c0,3.8,0,7.6,0,11.4c0,0.7,0.4,1.5,0.8,2.1c1.4,1.7,2.9,3.3,4.3,5
	c0.3,0.4,0.6,0.7,0.8,1.1c0.5,1,0.4,2-0.5,2.8c-0.9,0.7-1.9,0.7-2.7-0.1c-2.3-2.3-4.5-4.6-6.6-7.1c-0.7-0.8-1-2.1-1.5-3.3
	c-1.1,1.3-2.2,2.5-3.3,3.7c-2,2.3-4.1,4.6-6.1,7c-0.5,0.6-0.9,1.6-0.9,2.4c-0.1,11.5,0,23.1,0,34.6
	C109.5,388.7,109.5,389.3,109.5,390z"/>
<path d="M137,353.3c-1-1.4-1.9-2.6-2.7-3.8c-0.3-0.5-0.7-0.9-0.9-1.4c-0.6-1.2-0.3-2.2,0.6-3c1-0.8,2.2-0.8,3.1,0
	c3.5,3.3,6.9,6.6,10.2,10.1c1.7,1.9,1.3,4.7-0.6,6.5c-1.4,1.3-3.1,1.8-4.9,1.8c-5.3,0-10.7,0-16,0c-3.8,0-6-2.7-5.1-6.4
	c0.5-2.3,2.1-3.7,4.5-3.7C128.9,353.3,132.8,353.3,137,353.3z"/>
<path d="M162.6,365.7c0,1.7,0,3.3,0,5c-14,0-28,0-42.2,0c0-1.6,0-3.3,0-5C134.5,365.7,148.5,365.7,162.6,365.7z"/>
<path d="M134.8,316.7c0,3.6-3.1,6.6-6.7,6.6c-3.6,0-6.7-3.2-6.6-6.8c0.1-3.6,3.1-6.5,6.8-6.5C131.9,310,134.8,313.1,134.8,316.7z"/>
<path d="M149.9,358.8c0-2.7,2.3-5,5-5.1c2.8,0,5.2,2.4,5.1,5.1c0,2.7-2.4,4.9-5.1,4.9C152.1,363.7,149.9,361.5,149.9,358.8z"/>
<g>
	<path d="M233.2,342.6c1.5,12-2.6,20.2-11.2,19.4c-0.5,4.4-0.9,8.8-1.5,13.3c-0.4,3.1-1.6,4.9-5.4,4.7c-9.4-0.3-18.9-0.1-29.4-0.1
		c4.6-12.7,0.3-24.5-0.2-36.4c-0.2-4,0.9-8.2,2.1-12.2c1.5-4.9,5.1-7.4,10.6-7.2c8.5,0.3,17,0,25.5,0.1c5.1,0.1,6.2,1.6,5.3,6.3
		c-6.2-2.7-8.3-2.2-9.4,4.6c-0.9,5.7-0.3,11.8,0.5,17.6c0.2,1.9,3,3.5,4.6,5.3c1.4-1.7,3.2-3.3,4.2-5.2c0.8-1.5,0.6-3.6,1.3-5.2
		C231,345.8,232.2,344.2,233.2,342.6z M217.4,328.5c-6.3,0-11.4,0-16.5,0c-8.1,0-10.1,1.7-11.1,9.8c-0.2,1.6-0.2,3.3-0.1,5
		c0.8,10.8,1.7,21.6,2.6,32.8c6.5,0,13.7,0.2,20.8-0.2c1.3-0.1,3.6-2.1,3.7-3.3c0.3-4.8,0.6-9.7-0.3-14.4
		C214.7,348.6,212.6,339.1,217.4,328.5z"/>
	<path d="M229,336c0.6-2.5,1.4-6.6,2.6-10.5c1.1-3.8-0.3-4.7-3.8-4.7c-10.3,0.1-20.6,0.2-31-0.1c-1.7,0-3.4-1.6-5.1-2.4
		c1.7-1.1,3.5-3,5.2-3.1c11.3-0.3,22.6-0.2,34-0.1c6.2,0.1,8,2.4,6.8,8.4c-0.9,4.7-1.4,9.7-3.3,14c-1.8,4-5.1,7.4-7.8,10.9
		c-0.3,0.3-2.4-0.2-2.5-0.5c-0.5-2.8-1.1-5.8-0.7-8.6C223.6,338.3,226.3,337.6,229,336z"/>
</g>
<path d="M252.8,346.6c1.1-1.7,2.3-2.4,3.5-1.6c0.6,0.4,1.3,1.4,1.3,2.1c0,0.7-0.6,1.8-1.3,2c-0.7,0.3-1.8,0-2.6-0.3
	c-0.4-0.1-0.6-0.8-1-1.2C252.8,347.3,252.8,347,252.8,346.6z"/>
<path d="M308.6,325.4c0.5,0.7,1.3,1.3,1.3,1.9c0.1,1-0.1,2.3-0.7,2.8c-1.2,1.1-1.2,2.1-0.6,3.5c2.2,5.3,2.4,10.5-0.3,15.6
	c-10-10-20-20.1-30-30.1c4.9-2.7,10.1-2.5,15.4-0.3c1.5,0.6,2.5,0.7,3.6-0.6c1.3-1.5,2.6-1.4,4,0.3c1.2,1.4,2.2,1.4,3.8,0.6
	c10.3-5.3,23.3,1.5,24.8,13c0.2,1.3,0.3,2.7,0.3,4.1c0,15.8,0,31.5,0,47.3c0,1.3,0.1,2.9-1.4,3.3c-1.5,0.4-3.3,0.3-4.8-0.1
	c-0.6-0.2-1.1-1.9-1.1-2.9c-0.1-12,0-23.9,0-35.9c0-4.6,0.1-9.1,0-13.7c-0.1-6.8-7.1-11.6-13.4-9.2
	C309.2,325,308.9,325.2,308.6,325.4z"/>
<path d="M307.9,354.4c-0.8,0.9-1.5,1.8-2.4,2.3c-0.4,0.2-1.5-0.2-1.9-0.7c-10.8-10.7-21.5-21.5-32.3-32.2c-1.2-1.2-0.8-2,0.2-3.1
	c1.1-1.1,1.9-1.3,3.1-0.1c10.7,10.7,21.4,21.4,32.1,32.2C307.1,353.2,307.4,353.7,307.9,354.4z"/>
<path d="M267.7,342c0,1.3-0.9,2.4-2.3,2.4c-1.4,0.1-2.5-1-2.5-2.3c0-1.3,1-2.3,2.4-2.3C266.6,339.8,267.7,340.7,267.7,342z"/>
<path d="M280.1,374.5c-1.4-0.1-2.3-1.3-2.1-2.7c0.2-1.3,1.3-2.2,2.6-2c1.4,0.2,2.1,1.2,2,2.6C282.6,373.7,281.4,374.6,280.1,374.5z"
	/>
<path d="M270.2,359.7c0,1.3-1.1,2.3-2.4,2.2c-1.3,0-2.4-1.1-2.4-2.3c0-1.3,1.2-2.4,2.6-2.3C269.3,357.4,270.2,358.4,270.2,359.7z"/>
<path d="M275.3,339.5c-1.4,0-2.3-1-2.3-2.4c0-1.4,1-2.3,2.4-2.3c1.4,0,2.3,1,2.3,2.4C277.7,338.5,276.6,339.5,275.3,339.5z"/>
<path d="M285.2,344.6c0,1.4-0.9,2.4-2.3,2.4c-1.4,0-2.4-0.9-2.4-2.3c0-1.4,0.9-2.4,2.3-2.4C284.2,342.3,285.1,343.2,285.2,344.6z"/>
<path d="M277.7,352c0,1.4-0.9,2.4-2.3,2.4c-1.4,0-2.4-0.9-2.4-2.3c-0.1-1.3,0.9-2.4,2.3-2.4C276.6,349.8,277.6,350.7,277.7,352z"/>
<path d="M292.6,352.1c0,1.4-0.9,2.4-2.3,2.4c-1.4,0-2.4-0.9-2.4-2.3c0-1.4,0.9-2.4,2.3-2.4C291.7,349.8,292.6,350.7,292.6,352.1z"/>
<path d="M287.7,362.2c0,1.4-1,2.3-2.4,2.3c-1.4,0-2.3-1-2.3-2.4c0-1.4,1-2.3,2.4-2.3C286.7,359.8,287.7,360.8,287.7,362.2z"/>
</svg>
